<svg xmlns="http://www.w3.org/2000/svg" width="32" height="32" viewBox="0 0 32 32" fill="none">
  <rect width="32" height="32" rx="8" fill="#7C3AED"/>
  <path d="M16 8C12.0741 8 9 11.0741 9 15C9 17.5 10.5 19.6 12.7 20.7C12.7 20.6 12.7 20.4 12.8 20.2C13 19.7 13.2 19.2 13.7 18.9C14.2 18.5 14.8 18.3 15.4 18.3H16.7C17.3 18.3 17.9 18.5 18.4 18.9C18.9 19.2 19.1 19.7 19.3 20.2C19.4 20.4 19.4 20.6 19.4 20.7C21.5 19.6 23 17.5 23 15C23 11.0741 19.9259 8 16 8ZM16 9.8C17.5 9.8 18.7 10.9 18.7 12.4C18.7 13.9 17.5 15 16 15C14.5 15 13.3 13.9 13.3 12.4C13.3 10.9 14.5 9.8 16 9.8ZM16 21.9C14.4 21.9 13 21.4 11.9 20.7C12 20.3 12.2 20 12.4 19.7C12.8 19.2 13.2 19 13.7 18.8C14.2 18.5 14.8 18.4 15.4 18.4H16.7C17.3 18.4 17.9 18.5 18.4 18.8C18.9 19 19.3 19.2 19.7 19.7C19.9 20 20.1 20.3 20.2 20.7C19 21.4 17.6 21.9 16 21.9Z" fill="white"/>
</svg> 