<svg xmlns="http://www.w3.org/2000/svg" width="36" height="36" viewBox="0 0 36 36" fill="none">
  <rect width="36" height="36" rx="8" fill="#7C3AED"/>
  <path d="M18 9C13.5817 9 10 12.5817 10 17C10 19.9 11.7 22.4 14.2 23.6C14.2 23.5 14.2 23.3 14.3 23.1C14.5 22.5 14.8 22 15.4 21.6C15.9 21.2 16.6 21 17.2 21H18.8C19.5 21 20.1 21.2 20.6 21.6C21.2 22 21.5 22.5 21.7 23.1C21.8 23.3 21.8 23.5 21.8 23.6C24.3 22.4 26 19.9 26 17C26 12.5817 22.4183 9 18 9ZM18 11C19.7 11 21 12.3 21 14C21 15.7 19.7 17 18 17C16.3 17 15 15.7 15 14C15 12.3 16.3 11 18 11ZM18 24.9C16.2 24.9 14.6 24.4 13.3 23.5C13.4 23.1 13.6 22.7 13.9 22.4C14.3 21.9 14.8 21.6 15.3 21.4C15.9 21.1 16.5 21 17.2 21H18.8C19.5 21 20.1 21.1 20.7 21.4C21.2 21.6 21.7 21.9 22.1 22.4C22.4 22.7 22.6 23.1 22.7 23.5C21.4 24.4 19.8 24.9 18 24.9Z" fill="white"/>
</svg> 